M48
; DRILL file {KiCad 7.0.5} date Thu Jul 20 19:52:01 2023
; FORMAT={-:-/ absolute / metric / decimal}
; #@! TF.CreationDate,2023-07-20T19:52:01-07:00
; #@! TF.GenerationSoftware,Kicad,Pcbnew,7.0.5
; #@! TF.FileFunction,Plated,1,2,PTH
FMAT,2
METRIC
; #@! TA.AperFunction,Plated,PTH,ViaDrill
T1C0.400
; #@! TA.AperFunction,Plated,PTH,ComponentDrill
T2C0.950
; #@! TA.AperFunction,Plated,PTH,ComponentDrill
T3C1.000
; #@! TA.AperFunction,Plated,PTH,ViaDrill
T4C3.000
%
G90
G05
T1
X196.0Y-109.0
T2
X174.52Y-112.52
X177.02Y-112.52
X179.52Y-112.52
X182.02Y-112.52
X184.52Y-112.52
X187.02Y-112.52
X189.52Y-112.52
X192.02Y-112.52
T3
X150.27Y-99.78
X150.27Y-105.28
X152.81Y-99.78
X152.81Y-105.28
X168.34Y-99.87
X168.34Y-105.37
X170.88Y-99.87
X170.88Y-105.37
X177.7Y-99.92
X177.7Y-105.42
X180.24Y-99.92
X180.24Y-105.42
X186.63Y-99.85
X186.63Y-105.35
X189.17Y-99.85
X189.17Y-105.35
X195.98Y-99.92
X195.98Y-105.42
X198.52Y-99.92
X198.52Y-105.42
X214.29Y-100.02
X214.29Y-105.52
X216.83Y-100.02
X216.83Y-105.52
T4
X142.0Y-101.0
X142.0Y-113.0
X225.0Y-101.0
X225.0Y-113.0
T0
M30
