%TF.GenerationSoftware,KiCad,Pcbnew,7.0.5*%
%TF.CreationDate,2023-07-20T19:52:18-07:00*%
%TF.ProjectId,tape sensor smd,74617065-2073-4656-9e73-6f7220736d64,rev?*%
%TF.SameCoordinates,Original*%
%TF.FileFunction,Copper,L2,Bot*%
%TF.FilePolarity,Positive*%
%FSLAX46Y46*%
G04 Gerber Fmt 4.6, Leading zero omitted, Abs format (unit mm)*
G04 Created by KiCad (PCBNEW 7.0.5) date 2023-07-20 19:52:18*
%MOMM*%
%LPD*%
G01*
G04 APERTURE LIST*
G04 Aperture macros list*
%AMRoundRect*
0 Rectangle with rounded corners*
0 $1 Rounding radius*
0 $2 $3 $4 $5 $6 $7 $8 $9 X,Y pos of 4 corners*
0 Add a 4 corners polygon primitive as box body*
4,1,4,$2,$3,$4,$5,$6,$7,$8,$9,$2,$3,0*
0 Add four circle primitives for the rounded corners*
1,1,$1+$1,$2,$3*
1,1,$1+$1,$4,$5*
1,1,$1+$1,$6,$7*
1,1,$1+$1,$8,$9*
0 Add four rect primitives between the rounded corners*
20,1,$1+$1,$2,$3,$4,$5,0*
20,1,$1+$1,$4,$5,$6,$7,0*
20,1,$1+$1,$6,$7,$8,$9,0*
20,1,$1+$1,$8,$9,$2,$3,0*%
G04 Aperture macros list end*
%TA.AperFunction,ComponentPad*%
%ADD10C,1.500000*%
%TD*%
%TA.AperFunction,ComponentPad*%
%ADD11RoundRect,0.250000X-0.600000X-0.725000X0.600000X-0.725000X0.600000X0.725000X-0.600000X0.725000X0*%
%TD*%
%TA.AperFunction,ComponentPad*%
%ADD12O,1.700000X1.950000*%
%TD*%
%TA.AperFunction,ViaPad*%
%ADD13C,3.000000*%
%TD*%
%TA.AperFunction,ViaPad*%
%ADD14C,0.800000*%
%TD*%
%TA.AperFunction,Conductor*%
%ADD15C,0.250000*%
%TD*%
G04 APERTURE END LIST*
D10*
%TO.P,U5,A*%
%TO.N,Net-(R5-Pad1)*%
X168340000Y-99870000D03*
%TO.P,U5,CATH*%
%TO.N,GND*%
X170880000Y-99870000D03*
%TO.P,U5,COLL*%
%TO.N,BP5*%
X168340000Y-105370000D03*
%TO.P,U5,E*%
%TO.N,GND*%
X170880000Y-105370000D03*
%TD*%
%TO.P,U2,A*%
%TO.N,Net-(R2-Pad1)*%
X177700000Y-99920000D03*
%TO.P,U2,CATH*%
%TO.N,GND*%
X180240000Y-99920000D03*
%TO.P,U2,COLL*%
%TO.N,BP2*%
X177700000Y-105420000D03*
%TO.P,U2,E*%
%TO.N,GND*%
X180240000Y-105420000D03*
%TD*%
%TO.P,U4,A*%
%TO.N,Net-(R4-Pad1)*%
X214290000Y-100020000D03*
%TO.P,U4,CATH*%
%TO.N,GND*%
X216830000Y-100020000D03*
%TO.P,U4,COLL*%
%TO.N,BP4*%
X214290000Y-105520000D03*
%TO.P,U4,E*%
%TO.N,GND*%
X216830000Y-105520000D03*
%TD*%
%TO.P,U1,A*%
%TO.N,Net-(R1-Pad1)*%
X150270000Y-99780000D03*
%TO.P,U1,CATH*%
%TO.N,GND*%
X152810000Y-99780000D03*
%TO.P,U1,COLL*%
%TO.N,BP1*%
X150270000Y-105280000D03*
%TO.P,U1,E*%
%TO.N,GND*%
X152810000Y-105280000D03*
%TD*%
%TO.P,U6,A*%
%TO.N,Net-(R6-Pad1)*%
X195980000Y-99920000D03*
%TO.P,U6,CATH*%
%TO.N,GND*%
X198520000Y-99920000D03*
%TO.P,U6,COLL*%
%TO.N,BP6*%
X195980000Y-105420000D03*
%TO.P,U6,E*%
%TO.N,GND*%
X198520000Y-105420000D03*
%TD*%
D11*
%TO.P,J1,1,Pin_1*%
%TO.N,+5V*%
X174520000Y-112520000D03*
D12*
%TO.P,J1,2,Pin_2*%
%TO.N,GND*%
X177020000Y-112520000D03*
%TO.P,J1,3,Pin_3*%
%TO.N,BP1*%
X179520000Y-112520000D03*
%TO.P,J1,4,Pin_4*%
%TO.N,BP2*%
X182020000Y-112520000D03*
%TO.P,J1,5,Pin_5*%
%TO.N,BP3*%
X184520000Y-112520000D03*
%TO.P,J1,6,Pin_6*%
%TO.N,BP4*%
X187020000Y-112520000D03*
%TO.P,J1,7,Pin_7*%
%TO.N,BP5*%
X189520000Y-112520000D03*
%TO.P,J1,8,Pin_8*%
%TO.N,BP6*%
X192020000Y-112520000D03*
%TD*%
D10*
%TO.P,U3,A*%
%TO.N,Net-(R3-Pad1)*%
X186630000Y-99850000D03*
%TO.P,U3,CATH*%
%TO.N,GND*%
X189170000Y-99850000D03*
%TO.P,U3,COLL*%
%TO.N,BP3*%
X186630000Y-105350000D03*
%TO.P,U3,E*%
%TO.N,GND*%
X189170000Y-105350000D03*
%TD*%
D13*
%TO.N,*%
X225000000Y-113000000D03*
X225000000Y-101000000D03*
X142000000Y-113000000D03*
X142000000Y-101000000D03*
D14*
%TO.N,Net-(R3-Pad1)*%
X196000000Y-109000000D03*
%TD*%
D15*
%TO.N,GND*%
X163330000Y-97930000D02*
X163400000Y-98000000D01*
X154660000Y-97930000D02*
X163330000Y-97930000D01*
%TO.N,BP1*%
X160045000Y-114955000D02*
X159945000Y-114955000D01*
X160045000Y-114955000D02*
X159840000Y-114750000D01*
X160260000Y-115170000D02*
X160045000Y-114955000D01*
X159945000Y-114955000D02*
X150270000Y-105280000D01*
%TO.N,GND*%
X161480000Y-105280000D02*
X152810000Y-105280000D01*
X161550000Y-105350000D02*
X161480000Y-105280000D01*
%TO.N,BP4*%
X205380000Y-105520000D02*
X214290000Y-105520000D01*
X205330000Y-105470000D02*
X205380000Y-105520000D01*
%TO.N,GND*%
X214810000Y-98000000D02*
X216830000Y-100020000D01*
X200440000Y-98000000D02*
X214810000Y-98000000D01*
X198520000Y-99920000D02*
X200440000Y-98000000D01*
X173900000Y-109400000D02*
X161960000Y-109400000D01*
X170880000Y-99870000D02*
X172750000Y-98000000D01*
X216830000Y-100020000D02*
X216830000Y-105520000D01*
X191020000Y-98000000D02*
X196600000Y-98000000D01*
X170880000Y-99870000D02*
X170880000Y-105370000D01*
X161960000Y-109400000D02*
X161550000Y-108990000D01*
X189170000Y-99850000D02*
X191020000Y-98000000D01*
X196600000Y-98000000D02*
X198520000Y-99920000D01*
X163400000Y-98000000D02*
X169010000Y-98000000D01*
X182000000Y-98000000D02*
X189000000Y-98000000D01*
X152810000Y-99780000D02*
X154660000Y-97930000D01*
X152810000Y-105280000D02*
X152810000Y-99780000D01*
X198520000Y-99920000D02*
X198520000Y-105420000D01*
X161550000Y-108990000D02*
X161550000Y-105350000D01*
X169010000Y-98000000D02*
X170880000Y-99870000D01*
X182000000Y-98160000D02*
X182000000Y-98000000D01*
X180240000Y-99920000D02*
X180240000Y-105420000D01*
X176790000Y-112750000D02*
X176630000Y-112750000D01*
X189170000Y-98170000D02*
X189170000Y-99850000D01*
X178320000Y-98000000D02*
X180240000Y-99920000D01*
X180240000Y-99920000D02*
X182000000Y-98160000D01*
X172750000Y-98000000D02*
X178320000Y-98000000D01*
X189000000Y-98000000D02*
X189170000Y-98170000D01*
X177020000Y-112520000D02*
X173900000Y-109400000D01*
%TO.N,BP1*%
X170480000Y-115170000D02*
X160260000Y-115170000D01*
X178220000Y-113820000D02*
X171830000Y-113820000D01*
X179520000Y-112520000D02*
X178220000Y-113820000D01*
X171830000Y-113820000D02*
X170480000Y-115170000D01*
%TO.N,BP4*%
X187020000Y-112520000D02*
X189540000Y-110000000D01*
X205330000Y-109670000D02*
X205330000Y-105470000D01*
X205000000Y-110000000D02*
X205330000Y-109670000D01*
X189540000Y-110000000D02*
X205000000Y-110000000D01*
%TO.N,Net-(R3-Pad1)*%
X187000000Y-103000000D02*
X186630000Y-102630000D01*
X196000000Y-109000000D02*
X190000000Y-103000000D01*
X186630000Y-102630000D02*
X186630000Y-99850000D01*
X190000000Y-103000000D02*
X187000000Y-103000000D01*
%TD*%
M02*
