%TF.GenerationSoftware,KiCad,Pcbnew,7.0.5*%
%TF.CreationDate,2023-07-20T19:52:18-07:00*%
%TF.ProjectId,tape sensor smd,74617065-2073-4656-9e73-6f7220736d64,rev?*%
%TF.SameCoordinates,Original*%
%TF.FileFunction,Legend,Top*%
%TF.FilePolarity,Positive*%
%FSLAX46Y46*%
G04 Gerber Fmt 4.6, Leading zero omitted, Abs format (unit mm)*
G04 Created by KiCad (PCBNEW 7.0.5) date 2023-07-20 19:52:18*
%MOMM*%
%LPD*%
G01*
G04 APERTURE LIST*
%ADD10C,0.150000*%
%ADD11C,0.120000*%
%ADD12C,0.127000*%
G04 APERTURE END LIST*
D10*
X210670112Y-113346009D02*
X210336779Y-113346009D01*
X210336779Y-113869819D02*
X210336779Y-112869819D01*
X210336779Y-112869819D02*
X210812969Y-112869819D01*
X211765350Y-113869819D02*
X211432017Y-113393628D01*
X211193922Y-113869819D02*
X211193922Y-112869819D01*
X211193922Y-112869819D02*
X211574874Y-112869819D01*
X211574874Y-112869819D02*
X211670112Y-112917438D01*
X211670112Y-112917438D02*
X211717731Y-112965057D01*
X211717731Y-112965057D02*
X211765350Y-113060295D01*
X211765350Y-113060295D02*
X211765350Y-113203152D01*
X211765350Y-113203152D02*
X211717731Y-113298390D01*
X211717731Y-113298390D02*
X211670112Y-113346009D01*
X211670112Y-113346009D02*
X211574874Y-113393628D01*
X211574874Y-113393628D02*
X211193922Y-113393628D01*
X212146303Y-113584104D02*
X212622493Y-113584104D01*
X212051065Y-113869819D02*
X212384398Y-112869819D01*
X212384398Y-112869819D02*
X212717731Y-113869819D01*
X213051065Y-113869819D02*
X213051065Y-112869819D01*
X213051065Y-112869819D02*
X213622493Y-113869819D01*
X213622493Y-113869819D02*
X213622493Y-112869819D01*
X214098684Y-113869819D02*
X214098684Y-112869819D01*
X214670112Y-113869819D02*
X214241541Y-113298390D01*
X214670112Y-112869819D02*
X214098684Y-113441247D01*
X209193922Y-109869819D02*
X209765350Y-109869819D01*
X209479636Y-110869819D02*
X209479636Y-109869819D01*
X210098684Y-110346009D02*
X210432017Y-110346009D01*
X210574874Y-110869819D02*
X210098684Y-110869819D01*
X210098684Y-110869819D02*
X210098684Y-109869819D01*
X210098684Y-109869819D02*
X210574874Y-109869819D01*
X210955827Y-110584104D02*
X211432017Y-110584104D01*
X210860589Y-110869819D02*
X211193922Y-109869819D01*
X211193922Y-109869819D02*
X211527255Y-110869819D01*
X211860589Y-110869819D02*
X211860589Y-109869819D01*
X211860589Y-109869819D02*
X212193922Y-110584104D01*
X212193922Y-110584104D02*
X212527255Y-109869819D01*
X212527255Y-109869819D02*
X212527255Y-110869819D01*
X214289160Y-110869819D02*
X213717732Y-110869819D01*
X214003446Y-110869819D02*
X214003446Y-109869819D01*
X214003446Y-109869819D02*
X213908208Y-110012676D01*
X213908208Y-110012676D02*
X213812970Y-110107914D01*
X213812970Y-110107914D02*
X213717732Y-110155533D01*
X215193922Y-109869819D02*
X214717732Y-109869819D01*
X214717732Y-109869819D02*
X214670113Y-110346009D01*
X214670113Y-110346009D02*
X214717732Y-110298390D01*
X214717732Y-110298390D02*
X214812970Y-110250771D01*
X214812970Y-110250771D02*
X215051065Y-110250771D01*
X215051065Y-110250771D02*
X215146303Y-110298390D01*
X215146303Y-110298390D02*
X215193922Y-110346009D01*
X215193922Y-110346009D02*
X215241541Y-110441247D01*
X215241541Y-110441247D02*
X215241541Y-110679342D01*
X215241541Y-110679342D02*
X215193922Y-110774580D01*
X215193922Y-110774580D02*
X215146303Y-110822200D01*
X215146303Y-110822200D02*
X215051065Y-110869819D01*
X215051065Y-110869819D02*
X214812970Y-110869819D01*
X214812970Y-110869819D02*
X214717732Y-110822200D01*
X214717732Y-110822200D02*
X214670113Y-110774580D01*
X217003446Y-110869819D02*
X216670113Y-110393628D01*
X216432018Y-110869819D02*
X216432018Y-109869819D01*
X216432018Y-109869819D02*
X216812970Y-109869819D01*
X216812970Y-109869819D02*
X216908208Y-109917438D01*
X216908208Y-109917438D02*
X216955827Y-109965057D01*
X216955827Y-109965057D02*
X217003446Y-110060295D01*
X217003446Y-110060295D02*
X217003446Y-110203152D01*
X217003446Y-110203152D02*
X216955827Y-110298390D01*
X216955827Y-110298390D02*
X216908208Y-110346009D01*
X216908208Y-110346009D02*
X216812970Y-110393628D01*
X216812970Y-110393628D02*
X216432018Y-110393628D01*
X217432018Y-110774580D02*
X217479637Y-110822200D01*
X217479637Y-110822200D02*
X217432018Y-110869819D01*
X217432018Y-110869819D02*
X217384399Y-110822200D01*
X217384399Y-110822200D02*
X217432018Y-110774580D01*
X217432018Y-110774580D02*
X217432018Y-110869819D01*
X218098684Y-109869819D02*
X218289160Y-109869819D01*
X218289160Y-109869819D02*
X218384398Y-109917438D01*
X218384398Y-109917438D02*
X218479636Y-110012676D01*
X218479636Y-110012676D02*
X218527255Y-110203152D01*
X218527255Y-110203152D02*
X218527255Y-110536485D01*
X218527255Y-110536485D02*
X218479636Y-110726961D01*
X218479636Y-110726961D02*
X218384398Y-110822200D01*
X218384398Y-110822200D02*
X218289160Y-110869819D01*
X218289160Y-110869819D02*
X218098684Y-110869819D01*
X218098684Y-110869819D02*
X218003446Y-110822200D01*
X218003446Y-110822200D02*
X217908208Y-110726961D01*
X217908208Y-110726961D02*
X217860589Y-110536485D01*
X217860589Y-110536485D02*
X217860589Y-110203152D01*
X217860589Y-110203152D02*
X217908208Y-110012676D01*
X217908208Y-110012676D02*
X218003446Y-109917438D01*
X218003446Y-109917438D02*
X218098684Y-109869819D01*
X218955827Y-110774580D02*
X219003446Y-110822200D01*
X219003446Y-110822200D02*
X218955827Y-110869819D01*
X218955827Y-110869819D02*
X218908208Y-110822200D01*
X218908208Y-110822200D02*
X218955827Y-110774580D01*
X218955827Y-110774580D02*
X218955827Y-110869819D01*
X219765350Y-110346009D02*
X219908207Y-110393628D01*
X219908207Y-110393628D02*
X219955826Y-110441247D01*
X219955826Y-110441247D02*
X220003445Y-110536485D01*
X220003445Y-110536485D02*
X220003445Y-110679342D01*
X220003445Y-110679342D02*
X219955826Y-110774580D01*
X219955826Y-110774580D02*
X219908207Y-110822200D01*
X219908207Y-110822200D02*
X219812969Y-110869819D01*
X219812969Y-110869819D02*
X219432017Y-110869819D01*
X219432017Y-110869819D02*
X219432017Y-109869819D01*
X219432017Y-109869819D02*
X219765350Y-109869819D01*
X219765350Y-109869819D02*
X219860588Y-109917438D01*
X219860588Y-109917438D02*
X219908207Y-109965057D01*
X219908207Y-109965057D02*
X219955826Y-110060295D01*
X219955826Y-110060295D02*
X219955826Y-110155533D01*
X219955826Y-110155533D02*
X219908207Y-110250771D01*
X219908207Y-110250771D02*
X219860588Y-110298390D01*
X219860588Y-110298390D02*
X219765350Y-110346009D01*
X219765350Y-110346009D02*
X219432017Y-110346009D01*
X220432017Y-110774580D02*
X220479636Y-110822200D01*
X220479636Y-110822200D02*
X220432017Y-110869819D01*
X220432017Y-110869819D02*
X220384398Y-110822200D01*
X220384398Y-110822200D02*
X220432017Y-110774580D01*
X220432017Y-110774580D02*
X220432017Y-110869819D01*
X221289159Y-110822200D02*
X221193921Y-110869819D01*
X221193921Y-110869819D02*
X221003445Y-110869819D01*
X221003445Y-110869819D02*
X220908207Y-110822200D01*
X220908207Y-110822200D02*
X220860588Y-110726961D01*
X220860588Y-110726961D02*
X220860588Y-110346009D01*
X220860588Y-110346009D02*
X220908207Y-110250771D01*
X220908207Y-110250771D02*
X221003445Y-110203152D01*
X221003445Y-110203152D02*
X221193921Y-110203152D01*
X221193921Y-110203152D02*
X221289159Y-110250771D01*
X221289159Y-110250771D02*
X221336778Y-110346009D01*
X221336778Y-110346009D02*
X221336778Y-110441247D01*
X221336778Y-110441247D02*
X220860588Y-110536485D01*
X221765350Y-110869819D02*
X221765350Y-110203152D01*
X221765350Y-110393628D02*
X221812969Y-110298390D01*
X221812969Y-110298390D02*
X221860588Y-110250771D01*
X221860588Y-110250771D02*
X221955826Y-110203152D01*
X221955826Y-110203152D02*
X222051064Y-110203152D01*
X222241541Y-110203152D02*
X222622493Y-110203152D01*
X222384398Y-109869819D02*
X222384398Y-110726961D01*
X222384398Y-110726961D02*
X222432017Y-110822200D01*
X222432017Y-110822200D02*
X222527255Y-110869819D01*
X222527255Y-110869819D02*
X222622493Y-110869819D01*
X223098684Y-110869819D02*
X223003446Y-110822200D01*
X223003446Y-110822200D02*
X222955827Y-110774580D01*
X222955827Y-110774580D02*
X222908208Y-110679342D01*
X222908208Y-110679342D02*
X222908208Y-110393628D01*
X222908208Y-110393628D02*
X222955827Y-110298390D01*
X222955827Y-110298390D02*
X223003446Y-110250771D01*
X223003446Y-110250771D02*
X223098684Y-110203152D01*
X223098684Y-110203152D02*
X223241541Y-110203152D01*
X223241541Y-110203152D02*
X223336779Y-110250771D01*
X223336779Y-110250771D02*
X223384398Y-110298390D01*
X223384398Y-110298390D02*
X223432017Y-110393628D01*
X223432017Y-110393628D02*
X223432017Y-110679342D01*
X223432017Y-110679342D02*
X223384398Y-110774580D01*
X223384398Y-110774580D02*
X223336779Y-110822200D01*
X223336779Y-110822200D02*
X223241541Y-110869819D01*
X223241541Y-110869819D02*
X223098684Y-110869819D01*
%TO.C,R6*%
X203643333Y-113454819D02*
X203310000Y-112978628D01*
X203071905Y-113454819D02*
X203071905Y-112454819D01*
X203071905Y-112454819D02*
X203452857Y-112454819D01*
X203452857Y-112454819D02*
X203548095Y-112502438D01*
X203548095Y-112502438D02*
X203595714Y-112550057D01*
X203595714Y-112550057D02*
X203643333Y-112645295D01*
X203643333Y-112645295D02*
X203643333Y-112788152D01*
X203643333Y-112788152D02*
X203595714Y-112883390D01*
X203595714Y-112883390D02*
X203548095Y-112931009D01*
X203548095Y-112931009D02*
X203452857Y-112978628D01*
X203452857Y-112978628D02*
X203071905Y-112978628D01*
X204500476Y-112454819D02*
X204310000Y-112454819D01*
X204310000Y-112454819D02*
X204214762Y-112502438D01*
X204214762Y-112502438D02*
X204167143Y-112550057D01*
X204167143Y-112550057D02*
X204071905Y-112692914D01*
X204071905Y-112692914D02*
X204024286Y-112883390D01*
X204024286Y-112883390D02*
X204024286Y-113264342D01*
X204024286Y-113264342D02*
X204071905Y-113359580D01*
X204071905Y-113359580D02*
X204119524Y-113407200D01*
X204119524Y-113407200D02*
X204214762Y-113454819D01*
X204214762Y-113454819D02*
X204405238Y-113454819D01*
X204405238Y-113454819D02*
X204500476Y-113407200D01*
X204500476Y-113407200D02*
X204548095Y-113359580D01*
X204548095Y-113359580D02*
X204595714Y-113264342D01*
X204595714Y-113264342D02*
X204595714Y-113026247D01*
X204595714Y-113026247D02*
X204548095Y-112931009D01*
X204548095Y-112931009D02*
X204500476Y-112883390D01*
X204500476Y-112883390D02*
X204405238Y-112835771D01*
X204405238Y-112835771D02*
X204214762Y-112835771D01*
X204214762Y-112835771D02*
X204119524Y-112883390D01*
X204119524Y-112883390D02*
X204071905Y-112931009D01*
X204071905Y-112931009D02*
X204024286Y-113026247D01*
%TO.C,R1*%
X164794819Y-112946666D02*
X164318628Y-113279999D01*
X164794819Y-113518094D02*
X163794819Y-113518094D01*
X163794819Y-113518094D02*
X163794819Y-113137142D01*
X163794819Y-113137142D02*
X163842438Y-113041904D01*
X163842438Y-113041904D02*
X163890057Y-112994285D01*
X163890057Y-112994285D02*
X163985295Y-112946666D01*
X163985295Y-112946666D02*
X164128152Y-112946666D01*
X164128152Y-112946666D02*
X164223390Y-112994285D01*
X164223390Y-112994285D02*
X164271009Y-113041904D01*
X164271009Y-113041904D02*
X164318628Y-113137142D01*
X164318628Y-113137142D02*
X164318628Y-113518094D01*
X164794819Y-111994285D02*
X164794819Y-112565713D01*
X164794819Y-112279999D02*
X163794819Y-112279999D01*
X163794819Y-112279999D02*
X163937676Y-112375237D01*
X163937676Y-112375237D02*
X164032914Y-112470475D01*
X164032914Y-112470475D02*
X164080533Y-112565713D01*
%TO.C,U5*%
X164487842Y-105148598D02*
X165300706Y-105148598D01*
X165300706Y-105148598D02*
X165396337Y-105100782D01*
X165396337Y-105100782D02*
X165444153Y-105052967D01*
X165444153Y-105052967D02*
X165491968Y-104957336D01*
X165491968Y-104957336D02*
X165491968Y-104766074D01*
X165491968Y-104766074D02*
X165444153Y-104670443D01*
X165444153Y-104670443D02*
X165396337Y-104622627D01*
X165396337Y-104622627D02*
X165300706Y-104574812D01*
X165300706Y-104574812D02*
X164487842Y-104574812D01*
X164487842Y-103618501D02*
X164487842Y-104096656D01*
X164487842Y-104096656D02*
X164965997Y-104144471D01*
X164965997Y-104144471D02*
X164918182Y-104096656D01*
X164918182Y-104096656D02*
X164870366Y-104001025D01*
X164870366Y-104001025D02*
X164870366Y-103761947D01*
X164870366Y-103761947D02*
X164918182Y-103666316D01*
X164918182Y-103666316D02*
X164965997Y-103618501D01*
X164965997Y-103618501D02*
X165061628Y-103570685D01*
X165061628Y-103570685D02*
X165300706Y-103570685D01*
X165300706Y-103570685D02*
X165396337Y-103618501D01*
X165396337Y-103618501D02*
X165444153Y-103666316D01*
X165444153Y-103666316D02*
X165491968Y-103761947D01*
X165491968Y-103761947D02*
X165491968Y-104001025D01*
X165491968Y-104001025D02*
X165444153Y-104096656D01*
X165444153Y-104096656D02*
X165396337Y-104144471D01*
%TO.C,R2*%
X170914819Y-113166666D02*
X170438628Y-113499999D01*
X170914819Y-113738094D02*
X169914819Y-113738094D01*
X169914819Y-113738094D02*
X169914819Y-113357142D01*
X169914819Y-113357142D02*
X169962438Y-113261904D01*
X169962438Y-113261904D02*
X170010057Y-113214285D01*
X170010057Y-113214285D02*
X170105295Y-113166666D01*
X170105295Y-113166666D02*
X170248152Y-113166666D01*
X170248152Y-113166666D02*
X170343390Y-113214285D01*
X170343390Y-113214285D02*
X170391009Y-113261904D01*
X170391009Y-113261904D02*
X170438628Y-113357142D01*
X170438628Y-113357142D02*
X170438628Y-113738094D01*
X170010057Y-112785713D02*
X169962438Y-112738094D01*
X169962438Y-112738094D02*
X169914819Y-112642856D01*
X169914819Y-112642856D02*
X169914819Y-112404761D01*
X169914819Y-112404761D02*
X169962438Y-112309523D01*
X169962438Y-112309523D02*
X170010057Y-112261904D01*
X170010057Y-112261904D02*
X170105295Y-112214285D01*
X170105295Y-112214285D02*
X170200533Y-112214285D01*
X170200533Y-112214285D02*
X170343390Y-112261904D01*
X170343390Y-112261904D02*
X170914819Y-112833332D01*
X170914819Y-112833332D02*
X170914819Y-112214285D01*
%TO.C,U2*%
X173847842Y-105198598D02*
X174660706Y-105198598D01*
X174660706Y-105198598D02*
X174756337Y-105150782D01*
X174756337Y-105150782D02*
X174804153Y-105102967D01*
X174804153Y-105102967D02*
X174851968Y-105007336D01*
X174851968Y-105007336D02*
X174851968Y-104816074D01*
X174851968Y-104816074D02*
X174804153Y-104720443D01*
X174804153Y-104720443D02*
X174756337Y-104672627D01*
X174756337Y-104672627D02*
X174660706Y-104624812D01*
X174660706Y-104624812D02*
X173847842Y-104624812D01*
X173943473Y-104194471D02*
X173895658Y-104146656D01*
X173895658Y-104146656D02*
X173847842Y-104051025D01*
X173847842Y-104051025D02*
X173847842Y-103811947D01*
X173847842Y-103811947D02*
X173895658Y-103716316D01*
X173895658Y-103716316D02*
X173943473Y-103668501D01*
X173943473Y-103668501D02*
X174039104Y-103620685D01*
X174039104Y-103620685D02*
X174134735Y-103620685D01*
X174134735Y-103620685D02*
X174278182Y-103668501D01*
X174278182Y-103668501D02*
X174851968Y-104242287D01*
X174851968Y-104242287D02*
X174851968Y-103620685D01*
%TO.C,U4*%
X210437842Y-105298598D02*
X211250706Y-105298598D01*
X211250706Y-105298598D02*
X211346337Y-105250782D01*
X211346337Y-105250782D02*
X211394153Y-105202967D01*
X211394153Y-105202967D02*
X211441968Y-105107336D01*
X211441968Y-105107336D02*
X211441968Y-104916074D01*
X211441968Y-104916074D02*
X211394153Y-104820443D01*
X211394153Y-104820443D02*
X211346337Y-104772627D01*
X211346337Y-104772627D02*
X211250706Y-104724812D01*
X211250706Y-104724812D02*
X210437842Y-104724812D01*
X210772551Y-103816316D02*
X211441968Y-103816316D01*
X210390027Y-104055394D02*
X211107259Y-104294471D01*
X211107259Y-104294471D02*
X211107259Y-103672870D01*
%TO.C,R3*%
X199914819Y-113166666D02*
X199438628Y-113499999D01*
X199914819Y-113738094D02*
X198914819Y-113738094D01*
X198914819Y-113738094D02*
X198914819Y-113357142D01*
X198914819Y-113357142D02*
X198962438Y-113261904D01*
X198962438Y-113261904D02*
X199010057Y-113214285D01*
X199010057Y-113214285D02*
X199105295Y-113166666D01*
X199105295Y-113166666D02*
X199248152Y-113166666D01*
X199248152Y-113166666D02*
X199343390Y-113214285D01*
X199343390Y-113214285D02*
X199391009Y-113261904D01*
X199391009Y-113261904D02*
X199438628Y-113357142D01*
X199438628Y-113357142D02*
X199438628Y-113738094D01*
X198914819Y-112833332D02*
X198914819Y-112214285D01*
X198914819Y-112214285D02*
X199295771Y-112547618D01*
X199295771Y-112547618D02*
X199295771Y-112404761D01*
X199295771Y-112404761D02*
X199343390Y-112309523D01*
X199343390Y-112309523D02*
X199391009Y-112261904D01*
X199391009Y-112261904D02*
X199486247Y-112214285D01*
X199486247Y-112214285D02*
X199724342Y-112214285D01*
X199724342Y-112214285D02*
X199819580Y-112261904D01*
X199819580Y-112261904D02*
X199867200Y-112309523D01*
X199867200Y-112309523D02*
X199914819Y-112404761D01*
X199914819Y-112404761D02*
X199914819Y-112690475D01*
X199914819Y-112690475D02*
X199867200Y-112785713D01*
X199867200Y-112785713D02*
X199819580Y-112833332D01*
%TO.C,R5*%
X167914819Y-113136666D02*
X167438628Y-113469999D01*
X167914819Y-113708094D02*
X166914819Y-113708094D01*
X166914819Y-113708094D02*
X166914819Y-113327142D01*
X166914819Y-113327142D02*
X166962438Y-113231904D01*
X166962438Y-113231904D02*
X167010057Y-113184285D01*
X167010057Y-113184285D02*
X167105295Y-113136666D01*
X167105295Y-113136666D02*
X167248152Y-113136666D01*
X167248152Y-113136666D02*
X167343390Y-113184285D01*
X167343390Y-113184285D02*
X167391009Y-113231904D01*
X167391009Y-113231904D02*
X167438628Y-113327142D01*
X167438628Y-113327142D02*
X167438628Y-113708094D01*
X166914819Y-112231904D02*
X166914819Y-112708094D01*
X166914819Y-112708094D02*
X167391009Y-112755713D01*
X167391009Y-112755713D02*
X167343390Y-112708094D01*
X167343390Y-112708094D02*
X167295771Y-112612856D01*
X167295771Y-112612856D02*
X167295771Y-112374761D01*
X167295771Y-112374761D02*
X167343390Y-112279523D01*
X167343390Y-112279523D02*
X167391009Y-112231904D01*
X167391009Y-112231904D02*
X167486247Y-112184285D01*
X167486247Y-112184285D02*
X167724342Y-112184285D01*
X167724342Y-112184285D02*
X167819580Y-112231904D01*
X167819580Y-112231904D02*
X167867200Y-112279523D01*
X167867200Y-112279523D02*
X167914819Y-112374761D01*
X167914819Y-112374761D02*
X167914819Y-112612856D01*
X167914819Y-112612856D02*
X167867200Y-112708094D01*
X167867200Y-112708094D02*
X167819580Y-112755713D01*
%TO.C,U1*%
X146417842Y-105058598D02*
X147230706Y-105058598D01*
X147230706Y-105058598D02*
X147326337Y-105010782D01*
X147326337Y-105010782D02*
X147374153Y-104962967D01*
X147374153Y-104962967D02*
X147421968Y-104867336D01*
X147421968Y-104867336D02*
X147421968Y-104676074D01*
X147421968Y-104676074D02*
X147374153Y-104580443D01*
X147374153Y-104580443D02*
X147326337Y-104532627D01*
X147326337Y-104532627D02*
X147230706Y-104484812D01*
X147230706Y-104484812D02*
X146417842Y-104484812D01*
X147421968Y-103480685D02*
X147421968Y-104054471D01*
X147421968Y-103767578D02*
X146417842Y-103767578D01*
X146417842Y-103767578D02*
X146561289Y-103863209D01*
X146561289Y-103863209D02*
X146656920Y-103958840D01*
X146656920Y-103958840D02*
X146704735Y-104054471D01*
%TO.C,U6*%
X192127842Y-105198598D02*
X192940706Y-105198598D01*
X192940706Y-105198598D02*
X193036337Y-105150782D01*
X193036337Y-105150782D02*
X193084153Y-105102967D01*
X193084153Y-105102967D02*
X193131968Y-105007336D01*
X193131968Y-105007336D02*
X193131968Y-104816074D01*
X193131968Y-104816074D02*
X193084153Y-104720443D01*
X193084153Y-104720443D02*
X193036337Y-104672627D01*
X193036337Y-104672627D02*
X192940706Y-104624812D01*
X192940706Y-104624812D02*
X192127842Y-104624812D01*
X192127842Y-103716316D02*
X192127842Y-103907578D01*
X192127842Y-103907578D02*
X192175658Y-104003209D01*
X192175658Y-104003209D02*
X192223473Y-104051025D01*
X192223473Y-104051025D02*
X192366920Y-104146656D01*
X192366920Y-104146656D02*
X192558182Y-104194471D01*
X192558182Y-104194471D02*
X192940706Y-104194471D01*
X192940706Y-104194471D02*
X193036337Y-104146656D01*
X193036337Y-104146656D02*
X193084153Y-104098840D01*
X193084153Y-104098840D02*
X193131968Y-104003209D01*
X193131968Y-104003209D02*
X193131968Y-103811947D01*
X193131968Y-103811947D02*
X193084153Y-103716316D01*
X193084153Y-103716316D02*
X193036337Y-103668501D01*
X193036337Y-103668501D02*
X192940706Y-103620685D01*
X192940706Y-103620685D02*
X192701628Y-103620685D01*
X192701628Y-103620685D02*
X192605997Y-103668501D01*
X192605997Y-103668501D02*
X192558182Y-103716316D01*
X192558182Y-103716316D02*
X192510366Y-103811947D01*
X192510366Y-103811947D02*
X192510366Y-104003209D01*
X192510366Y-104003209D02*
X192558182Y-104098840D01*
X192558182Y-104098840D02*
X192605997Y-104146656D01*
X192605997Y-104146656D02*
X192701628Y-104194471D01*
%TO.C,J1*%
X182936666Y-109174819D02*
X182936666Y-109889104D01*
X182936666Y-109889104D02*
X182889047Y-110031961D01*
X182889047Y-110031961D02*
X182793809Y-110127200D01*
X182793809Y-110127200D02*
X182650952Y-110174819D01*
X182650952Y-110174819D02*
X182555714Y-110174819D01*
X183936666Y-110174819D02*
X183365238Y-110174819D01*
X183650952Y-110174819D02*
X183650952Y-109174819D01*
X183650952Y-109174819D02*
X183555714Y-109317676D01*
X183555714Y-109317676D02*
X183460476Y-109412914D01*
X183460476Y-109412914D02*
X183365238Y-109460533D01*
%TO.C,U3*%
X182777842Y-105128598D02*
X183590706Y-105128598D01*
X183590706Y-105128598D02*
X183686337Y-105080782D01*
X183686337Y-105080782D02*
X183734153Y-105032967D01*
X183734153Y-105032967D02*
X183781968Y-104937336D01*
X183781968Y-104937336D02*
X183781968Y-104746074D01*
X183781968Y-104746074D02*
X183734153Y-104650443D01*
X183734153Y-104650443D02*
X183686337Y-104602627D01*
X183686337Y-104602627D02*
X183590706Y-104554812D01*
X183590706Y-104554812D02*
X182777842Y-104554812D01*
X182777842Y-104172287D02*
X182777842Y-103550685D01*
X182777842Y-103550685D02*
X183160366Y-103885394D01*
X183160366Y-103885394D02*
X183160366Y-103741947D01*
X183160366Y-103741947D02*
X183208182Y-103646316D01*
X183208182Y-103646316D02*
X183255997Y-103598501D01*
X183255997Y-103598501D02*
X183351628Y-103550685D01*
X183351628Y-103550685D02*
X183590706Y-103550685D01*
X183590706Y-103550685D02*
X183686337Y-103598501D01*
X183686337Y-103598501D02*
X183734153Y-103646316D01*
X183734153Y-103646316D02*
X183781968Y-103741947D01*
X183781968Y-103741947D02*
X183781968Y-104028840D01*
X183781968Y-104028840D02*
X183734153Y-104124471D01*
X183734153Y-104124471D02*
X183686337Y-104172287D01*
D11*
%TO.C,R6*%
X202545000Y-112752936D02*
X202545000Y-113207064D01*
X201075000Y-112752936D02*
X201075000Y-113207064D01*
%TO.C,R1*%
X163425000Y-112552936D02*
X163425000Y-113007064D01*
X161955000Y-112552936D02*
X161955000Y-113007064D01*
D12*
%TO.C,U5*%
X166660000Y-107770000D02*
X166660000Y-103790000D01*
X171410000Y-107770000D02*
X166660000Y-107770000D01*
X172560000Y-101450000D02*
X172560000Y-99020000D01*
X166660000Y-99020000D02*
X166660000Y-101450000D01*
X166660000Y-99020000D02*
X168210000Y-97470000D01*
X172560000Y-99020000D02*
X171010000Y-97470000D01*
X171010000Y-97470000D02*
X168210000Y-97470000D01*
D11*
%TO.C,R2*%
X169545000Y-112772936D02*
X169545000Y-113227064D01*
X168075000Y-112772936D02*
X168075000Y-113227064D01*
D12*
%TO.C,U2*%
X176020000Y-107820000D02*
X176020000Y-103840000D01*
X180770000Y-107820000D02*
X176020000Y-107820000D01*
X181920000Y-101500000D02*
X181920000Y-99070000D01*
X176020000Y-99070000D02*
X176020000Y-101500000D01*
X176020000Y-99070000D02*
X177570000Y-97520000D01*
X181920000Y-99070000D02*
X180370000Y-97520000D01*
X180370000Y-97520000D02*
X177570000Y-97520000D01*
%TO.C,U4*%
X212610000Y-107920000D02*
X212610000Y-103940000D01*
X217360000Y-107920000D02*
X212610000Y-107920000D01*
X218510000Y-101600000D02*
X218510000Y-99170000D01*
X212610000Y-99170000D02*
X212610000Y-101600000D01*
X212610000Y-99170000D02*
X214160000Y-97620000D01*
X218510000Y-99170000D02*
X216960000Y-97620000D01*
X216960000Y-97620000D02*
X214160000Y-97620000D01*
D11*
%TO.C,R3*%
X198545000Y-112772936D02*
X198545000Y-113227064D01*
X197075000Y-112772936D02*
X197075000Y-113227064D01*
%TO.C,R5*%
X166545000Y-112742936D02*
X166545000Y-113197064D01*
X165075000Y-112742936D02*
X165075000Y-113197064D01*
D12*
%TO.C,U1*%
X148590000Y-107680000D02*
X148590000Y-103700000D01*
X153340000Y-107680000D02*
X148590000Y-107680000D01*
X154490000Y-101360000D02*
X154490000Y-98930000D01*
X148590000Y-98930000D02*
X148590000Y-101360000D01*
X148590000Y-98930000D02*
X150140000Y-97380000D01*
X154490000Y-98930000D02*
X152940000Y-97380000D01*
X152940000Y-97380000D02*
X150140000Y-97380000D01*
D11*
%TO.C,R4*%
X206545000Y-112772936D02*
X206545000Y-113227064D01*
X205075000Y-112772936D02*
X205075000Y-113227064D01*
D12*
%TO.C,U6*%
X194300000Y-107820000D02*
X194300000Y-103840000D01*
X199050000Y-107820000D02*
X194300000Y-107820000D01*
X200200000Y-101500000D02*
X200200000Y-99070000D01*
X194300000Y-99070000D02*
X194300000Y-101500000D01*
X194300000Y-99070000D02*
X195850000Y-97520000D01*
X200200000Y-99070000D02*
X198650000Y-97520000D01*
X198650000Y-97520000D02*
X195850000Y-97520000D01*
D11*
%TO.C,J1*%
X171610000Y-112630000D02*
X171610000Y-115130000D01*
X171610000Y-115130000D02*
X174110000Y-115130000D01*
X171910000Y-110810000D02*
X171910000Y-114830000D01*
X171910000Y-112520000D02*
X172410000Y-112520000D01*
X171910000Y-113330000D02*
X172910000Y-113330000D01*
X171910000Y-114830000D02*
X194630000Y-114830000D01*
X172410000Y-111310000D02*
X194130000Y-111310000D01*
X172410000Y-112520000D02*
X172410000Y-111310000D01*
X172910000Y-113330000D02*
X172910000Y-114830000D01*
X193630000Y-113330000D02*
X193630000Y-114830000D01*
X194130000Y-111310000D02*
X194130000Y-112520000D01*
X194130000Y-112520000D02*
X194630000Y-112520000D01*
X194630000Y-110810000D02*
X171910000Y-110810000D01*
X194630000Y-113330000D02*
X193630000Y-113330000D01*
X194630000Y-114830000D02*
X194630000Y-110810000D01*
D12*
%TO.C,U3*%
X184950000Y-107750000D02*
X184950000Y-103770000D01*
X189700000Y-107750000D02*
X184950000Y-107750000D01*
X190850000Y-101430000D02*
X190850000Y-99000000D01*
X184950000Y-99000000D02*
X184950000Y-101430000D01*
X184950000Y-99000000D02*
X186500000Y-97450000D01*
X190850000Y-99000000D02*
X189300000Y-97450000D01*
X189300000Y-97450000D02*
X186500000Y-97450000D01*
%TD*%
M02*
